<svg width="35" height="35" viewBox="0 0 35 35" fill="none" xmlns="http://www.w3.org/2000/svg">
<g id="Cart">
<path id="Cart_1" d="M24.6094 30.0781C25.8175 30.0781 26.7969 29.0987 26.7969 27.8906C26.7969 26.6825 25.8175 25.7031 24.6094 25.7031C23.4013 25.7031 22.4219 26.6825 22.4219 27.8906C22.4219 29.0987 23.4013 30.0781 24.6094 30.0781Z" stroke="white" stroke-width="2" stroke-miterlimit="10" stroke-linecap="round" stroke-linejoin="round"/>
<path id="Cart_2" d="M13.6719 30.0781C14.88 30.0781 15.8594 29.0987 15.8594 27.8906C15.8594 26.6825 14.88 25.7031 13.6719 25.7031C12.4638 25.7031 11.4844 26.6825 11.4844 27.8906C11.4844 29.0987 12.4638 30.0781 13.6719 30.0781Z" stroke="white" stroke-width="2" stroke-miterlimit="10" stroke-linecap="round" stroke-linejoin="round"/>
<path id="Cart_3" d="M9.02344 12.5781H22.3945M8.20312 9.29688H30.9258C31.6914 9.29688 32.2109 10.0625 31.9375 10.7734L27.5898 22.0938C27.2617 22.9688 26.4414 23.5156 25.5391 23.5156H12.7422C11.7031 23.5156 10.8008 22.7773 10.582 21.7383L8.20312 9.29688ZM8.17578 9.29688L7.76562 7.21875C7.57422 6.20703 6.67187 5.46875 5.63281 5.46875H3.66406L8.17578 9.29688ZM24.8555 12.5781H25.6758H24.8555Z" stroke="white" stroke-width="2" stroke-miterlimit="10" stroke-linecap="round" stroke-linejoin="round"/>
</g>
</svg>
