<svg width="93" height="25" viewBox="0 0 93 25" fill="none" xmlns="http://www.w3.org/2000/svg">
<g id="dummy_logo" clip-path="url(#clip0_74_1609)">
<path id="dummy_logo_1" d="M21.674 25C20.7737 25 19.9269 24.6473 19.2907 24.0074C18.6535 23.368 18.3032 22.5172 18.3032 21.6113C18.3032 20.707 18.6535 19.8561 19.289 19.2172C19.9258 18.5768 20.7726 18.2241 21.6727 18.2241C22.5726 18.2241 23.4187 18.5758 24.0544 19.2157C25.3683 20.5374 25.3683 22.6878 24.0544 24.0091C23.4187 24.6484 22.5732 25 21.674 25Z" fill="#F87000"/>
<path id="dummy_logo_2" d="M3.37075 6.9332C2.47043 6.9332 1.62388 6.58048 0.987099 5.9401C0.350744 5.30079 0 4.44992 0 3.5445C0 2.63952 0.349886 1.78927 0.985599 1.15061C1.62281 0.509588 2.46978 0.15686 3.37033 0.15686C4.26958 0.15686 5.11569 0.508937 5.75099 1.14845C6.38819 1.78883 6.73892 2.64016 6.73892 3.54514C6.73892 4.45053 6.38841 5.30143 5.75164 5.94182C5.11569 6.58091 4.27001 6.9332 3.37075 6.9332Z" fill="#F87000"/>
<path id="dummy_logo_3" d="M21.5236 6.83389C20.6226 6.83389 19.7767 6.48113 19.1404 5.84121C17.8271 4.51992 17.826 2.37061 19.1384 1.05042C19.7752 0.41004 20.6217 0.0568848 21.5227 0.0568848C22.4224 0.0568848 23.2685 0.409608 23.9049 1.04934C25.2181 2.36996 25.2181 4.52035 23.9049 5.84315C23.2689 6.48156 22.4228 6.83389 21.5236 6.83389Z" fill="#01916D"/>
<path id="dummy_logo_4" d="M3.45849 25C2.55817 25 1.71162 24.6473 1.0742 24.0073C0.437839 23.3676 0.0877371 22.5171 0.0883798 21.6117C0.0883798 20.7067 0.439766 19.8561 1.07633 19.2161C1.20961 19.0812 1.3598 18.9578 1.55092 18.8281C1.60835 18.7878 1.66148 18.7556 1.71633 18.722C1.84103 18.6501 1.9653 18.5843 2.08122 18.5309C2.14443 18.5025 2.20914 18.4731 2.27749 18.4471C2.39854 18.4018 2.53374 18.3615 2.68822 18.3247C2.71908 18.3163 2.74629 18.309 2.77393 18.301C2.79128 18.2962 2.80799 18.2904 2.82556 18.2863L3.57569 18.2351C3.67083 18.2392 3.7726 18.2512 3.88123 18.2654L3.92408 18.2712C3.94958 18.2743 3.98407 18.2771 4.01857 18.279L4.04878 18.2812L4.08306 18.2881H4.11284C4.1677 18.2902 4.22255 18.2911 4.27675 18.2911C5.5696 18.2911 6.84576 17.7373 7.77843 16.7727C8.70701 15.8121 9.21848 14.5199 9.18184 13.2265L9.18076 13.1881L9.17369 13.148C9.16662 13.1118 9.16468 13.0752 9.16214 13.0388C9.15891 12.9953 9.15524 12.9522 9.1499 12.9086L9.14154 12.8326C9.13425 12.7675 9.12697 12.7039 9.1227 12.6389L9.18011 11.8821C9.18378 11.8631 9.19063 11.8459 9.19576 11.8274L9.20925 11.7806C9.24395 11.6374 9.2808 11.4934 9.3346 11.3542C9.36223 11.2751 9.38882 11.2168 9.41753 11.1568C9.47753 11.0246 9.53964 10.9043 9.6127 10.7811C9.64442 10.7276 9.67529 10.6733 9.71192 10.621C9.84796 10.4215 9.9718 10.2689 10.1002 10.1396C10.7365 9.49965 11.5824 9.14758 12.4838 9.14758C13.3835 9.14758 14.2307 9.49922 14.8675 10.1385C16.1796 11.4598 16.1787 13.6098 14.8645 14.9312C14.7316 15.0653 14.581 15.1881 14.3895 15.3197C14.3335 15.3581 14.2804 15.39 14.2271 15.4217C14.106 15.4945 13.9839 15.5591 13.8624 15.6154C13.7966 15.6451 13.7308 15.6757 13.6672 15.6992C13.5382 15.7475 13.4015 15.7884 13.2579 15.8209L13.1771 15.8436C13.1587 15.8487 13.1409 15.8546 13.1227 15.8593L12.3653 15.9134C12.2766 15.9097 12.1836 15.8976 12.0851 15.8849L12.0178 15.8765C11.9953 15.8729 11.9599 15.8703 11.9244 15.8681L11.8978 15.8655L11.8593 15.858H11.829C11.7737 15.8561 11.7193 15.8554 11.6647 15.8554C10.3718 15.8554 9.09615 16.4085 8.16408 17.3734C7.23507 18.3344 6.72339 19.6279 6.76003 20.9211L6.76111 20.9595L6.76817 20.9978C6.77524 21.0347 6.77675 21.0709 6.77977 21.1075C6.78274 21.1512 6.78662 21.1941 6.79175 21.2372C6.79326 21.2629 6.79839 21.3096 6.80417 21.3553C6.80977 21.4072 6.81662 21.4576 6.81662 21.5096V21.5281L6.76218 22.2534C6.75873 22.2687 6.73455 22.3523 6.7277 22.3784C6.69128 22.5348 6.65011 22.6733 6.60404 22.7979C6.57899 22.8672 6.55348 22.9269 6.52369 22.9894C6.4652 23.1181 6.40158 23.2415 6.3296 23.3669C6.29787 23.4182 6.26037 23.4785 6.22223 23.5365C6.09688 23.7192 5.97261 23.8728 5.83955 24.0073C5.20473 24.6466 4.35882 24.9993 3.45892 24.9993H3.45849V25Z" fill="#01916D"/>
<path id="dummy_logo_5" d="M12.5572 25C11.6563 25 10.8097 24.6473 10.1729 24.0069C9.53677 23.3672 9.18647 22.5167 9.18604 21.6113C9.1856 20.7069 9.53569 19.8565 10.1714 19.2183C10.3013 19.087 10.4487 18.9664 10.6501 18.8263C10.7 18.7923 10.7538 18.7591 10.8101 18.7266C10.9338 18.652 11.0529 18.5891 11.1765 18.5318C11.2423 18.5019 11.3066 18.4721 11.3719 18.4473C11.4971 18.401 11.6333 18.3607 11.7779 18.3286C11.7779 18.3286 11.8964 18.2939 11.9116 18.2903L12.6735 18.2342C12.7635 18.2383 12.8604 18.2515 12.9619 18.2646L13.0183 18.2722C13.0558 18.2758 13.0871 18.2788 13.1186 18.2795C13.131 18.2806 13.1437 18.2806 13.1556 18.2816L13.1797 18.2848L13.2113 18.2881C13.2671 18.2896 13.3236 18.2911 13.3793 18.2911C14.6696 18.2907 15.9438 17.7378 16.8744 16.7742C17.803 15.8143 18.3144 14.5204 18.2778 13.2271L18.2731 13.0692L18.2591 13.0517C18.2585 13.0466 18.2585 13.0403 18.2581 13.0345C18.2561 12.9976 18.254 12.9606 18.2503 12.9233L18.2379 12.8147C18.2311 12.755 18.2234 12.6962 18.2212 12.6363L18.2735 11.903C18.2775 11.8852 18.3039 11.7945 18.3099 11.7671C18.3528 11.5919 18.3903 11.4637 18.4331 11.3497C18.4571 11.2816 18.4865 11.2191 18.516 11.1534C18.5698 11.0354 18.633 10.9151 18.7101 10.7828L18.7247 10.7587C18.7506 10.7141 18.7757 10.6701 18.8066 10.627C18.9445 10.4249 19.0671 10.2728 19.1965 10.1426C19.8335 9.50225 20.6805 9.14954 21.5808 9.14954C22.4805 9.14954 23.3262 9.5016 23.9625 10.1411C25.2755 11.4618 25.2755 13.6128 23.9625 14.9349C23.835 15.0625 23.6831 15.186 23.4854 15.3232C23.4472 15.3495 23.4108 15.3715 23.3744 15.3935L23.3155 15.4303C23.2028 15.4975 23.08 15.5622 22.9604 15.6173C22.893 15.6477 22.8295 15.677 22.7625 15.7022C22.6446 15.747 22.5146 15.7848 22.3506 15.8242C22.3179 15.832 22.2913 15.8404 22.265 15.8483C22.2465 15.8531 22.2294 15.8587 22.2116 15.863L21.4628 15.9149C21.3531 15.9101 21.2346 15.894 21.1197 15.8787C21.0805 15.874 21.0503 15.8725 21.0205 15.8707C21.0092 15.8703 20.9978 15.8703 20.9862 15.8686L20.9224 15.8619C20.8667 15.8598 20.8114 15.8587 20.7561 15.8587C19.4648 15.8587 18.1908 16.412 17.259 17.3756C16.331 18.3366 15.82 19.6296 15.8577 20.9239L15.8588 20.9619L15.866 20.9991C15.8733 21.0375 15.8748 21.0767 15.8776 21.1151C15.8802 21.1549 15.8832 21.1939 15.8875 21.2321C15.89 21.2642 15.8947 21.3051 15.8991 21.3448C15.9059 21.4021 15.9128 21.4598 15.9143 21.5169L15.859 22.2605C15.8549 22.2769 15.826 22.3771 15.826 22.3771C15.79 22.5346 15.7499 22.6725 15.7024 22.8022C15.6799 22.8632 15.6533 22.922 15.6261 22.9834L15.6166 23.005C15.5609 23.126 15.4981 23.2459 15.4281 23.3629C15.3938 23.4206 15.3597 23.4773 15.3238 23.5309C15.1918 23.7235 15.0673 23.8768 14.9344 24.0116C14.3009 24.6484 13.4565 25 12.5572 25Z" fill="#F87000"/>
<path id="dummy_logo_6" d="M3.45963 15.8516C2.5593 15.8516 1.71297 15.4995 1.07683 14.86C0.440255 14.2191 0.0895103 13.3682 0.0888676 12.4628C0.0884391 11.5583 0.437898 10.7084 1.07426 10.0692C1.20474 9.93793 1.35665 9.81405 1.55206 9.67854C1.60305 9.64405 1.66047 9.60871 1.71789 9.57401C1.83445 9.50487 1.95337 9.44129 2.08021 9.38246C2.14535 9.3525 2.21005 9.32319 2.27883 9.29733C2.40267 9.25168 2.53937 9.21116 2.68185 9.17927L2.76756 9.15513C2.78341 9.15039 2.79863 9.14522 2.81427 9.14155L3.57682 9.08642C3.67582 9.09052 3.78294 9.1047 3.89522 9.12L3.91879 9.12323C3.95799 9.12733 3.9882 9.12905 4.01906 9.13056C4.02999 9.13099 4.04091 9.13099 4.05184 9.13272L4.08462 9.13854L4.11548 9.13961C4.17204 9.14112 4.22775 9.1422 4.28346 9.1422C5.57331 9.1422 6.84732 8.58953 7.77848 7.6253C8.70667 6.66431 9.21766 5.37082 9.18038 4.07714L9.17934 4.03986L9.17206 4.00302C9.16413 3.96208 9.16326 3.92049 9.16046 3.87847C9.15852 3.84443 9.15641 3.81017 9.15275 3.77462L9.14119 3.67011C9.13348 3.60806 9.12555 3.54514 9.12404 3.48222L9.1746 2.77053L9.17934 2.75415V2.73993C9.18339 2.72355 9.21102 2.62917 9.21102 2.62917C9.25387 2.4471 9.29201 2.31545 9.33486 2.19931C9.35887 2.13531 9.38865 2.07132 9.41887 2.00517C9.47369 1.88343 9.538 1.76018 9.61214 1.63456L9.62369 1.61517C9.65283 1.56626 9.68176 1.51756 9.71456 1.46865C9.84826 1.27387 9.97081 1.12174 10.0991 0.993108C10.7362 0.352728 11.5825 0 12.4834 0C13.3838 0 14.2299 0.352296 14.8667 0.99203C16.1799 2.3133 16.1788 4.46371 14.8652 5.78431C14.7351 5.91552 14.5802 6.04203 14.3906 6.17108C14.339 6.20793 14.2944 6.23401 14.2485 6.26138L14.2235 6.27603C14.0998 6.35013 13.9781 6.41457 13.8633 6.46759C13.7954 6.49901 13.7317 6.52789 13.667 6.55203C13.5406 6.59944 13.4065 6.63931 13.255 6.67444C13.2233 6.6822 13.1946 6.6906 13.1658 6.69858C13.1485 6.70332 13.1309 6.70888 13.1131 6.71319L12.3662 6.76578C12.2718 6.76103 12.1706 6.74832 12.0643 6.73474L12.0185 6.72892C11.984 6.72461 11.9521 6.7231 11.9215 6.72095C11.909 6.7203 11.8964 6.7203 11.884 6.71836L11.8589 6.71513L11.8261 6.71259C11.7704 6.71043 11.7149 6.70931 11.659 6.70931C10.3687 6.70931 9.09447 7.26203 8.16352 8.22539C7.2349 9.18638 6.72348 10.4803 6.76012 11.7746L6.76115 11.8123L6.76783 11.8496C6.77572 11.8873 6.77723 11.9267 6.78003 11.9651C6.78262 12.005 6.78581 12.0438 6.7899 12.0836C6.79309 12.115 6.79762 12.1553 6.80253 12.1954C6.80874 12.2521 6.81602 12.3077 6.8171 12.3639L6.76331 13.1025C6.75925 13.1213 6.75305 13.1409 6.74723 13.1609L6.72839 13.2271C6.69089 13.3924 6.65124 13.53 6.60628 13.6522C6.58227 13.7162 6.55141 13.7824 6.52055 13.8503C6.46529 13.972 6.4027 14.0922 6.32943 14.215C6.29473 14.2739 6.26214 14.329 6.22723 14.3809C6.08904 14.5824 5.9699 14.7304 5.83986 14.8602C5.20326 15.4999 4.35822 15.8516 3.45963 15.8516Z" fill="#F87000"/>
<path id="dummy_logo_7" d="M31.0814 9.68565H28.6387V7.95776H35.5916V9.68565H33.1219V17.056H31.0816V9.68565H31.0814Z" fill="#333333"/>
<path id="dummy_logo_8" d="M42.0605 13.2086H38.7318V15.3687H42.4499V17.056H36.6914V7.95776H42.262V9.64513H38.7318V11.5348H42.0605V13.2086Z" fill="#333333"/>
<path id="dummy_logo_9" d="M50.4757 16.8127C50.1132 16.9884 49.2541 17.2043 48.1671 17.2043C45.0391 17.2043 43.4287 15.2336 43.4287 12.6419C43.4287 9.53693 45.63 7.82288 48.3684 7.82288C49.4287 7.82288 50.2339 8.02542 50.5964 8.22775L50.1671 9.84766C49.7645 9.67206 49.1869 9.51025 48.449 9.51025C46.8378 9.51025 45.5766 10.4956 45.5766 12.5204C45.5766 14.3426 46.6498 15.4902 48.4623 15.4902C49.0929 15.4902 49.7645 15.3687 50.1804 15.1933L50.4757 16.8127Z" fill="#333333"/>
<path id="dummy_logo_10" d="M53.8838 7.95776V11.454H57.2528V7.95776H59.2933V17.056H57.2528V13.2493H53.8838V17.056H51.8438V7.95776H53.8838Z" fill="#333333"/>
<path id="dummy_logo_11" d="M61.1987 7.95776H62.3802V16.0705H66.2457V17.0558H61.1992V7.95776H61.1987Z" fill="#333333"/>
<path id="dummy_logo_12" d="M74.7554 12.4125C74.7554 15.5308 72.8623 17.2045 70.5536 17.2045C68.151 17.2045 66.4868 15.3282 66.4868 12.5743C66.4868 9.68569 68.2588 7.79578 70.6747 7.79578C73.1579 7.79578 74.7554 9.69927 74.7554 12.4125ZM67.7217 12.5473C67.7217 14.5047 68.7687 16.2461 70.6209 16.2461C72.4735 16.2461 73.52 14.5316 73.52 12.4663C73.52 10.6441 72.5808 8.75418 70.6342 8.75418C68.6881 8.75418 67.7217 10.5631 67.7217 12.5473Z" fill="#333333"/>
<path id="dummy_logo_13" d="M83.1696 16.6509C82.6463 16.8532 81.5993 17.1501 80.3778 17.1501C79.0084 17.1501 77.8812 16.7993 76.995 15.9486C76.2166 15.193 75.7334 13.978 75.7334 12.5606C75.7334 9.8474 77.5993 7.86292 80.6325 7.86292C81.6795 7.86292 82.5118 8.09235 82.9011 8.28132L82.6058 9.23977C82.1226 9.01029 81.5183 8.84826 80.6058 8.84826C78.4045 8.84826 76.9683 10.2251 76.9683 12.5063C76.9683 14.8149 78.3373 16.1779 80.4584 16.1779C81.2231 16.1779 81.7468 16.07 82.0153 15.9351V13.2217H80.1899V12.2768H83.1696V16.6509Z" fill="#333333"/>
<path id="dummy_logo_14" d="M92.6723 12.4125C92.6723 15.5308 90.7797 17.2045 88.4711 17.2045C86.068 17.2045 84.4038 15.3282 84.4038 12.5743C84.4038 9.68569 86.1758 7.79578 88.5917 7.79578C91.0749 7.79578 92.6723 9.69927 92.6723 12.4125ZM85.6387 12.5473C85.6387 14.5047 86.6857 16.2461 88.5379 16.2461C90.3904 16.2461 91.4374 14.5316 91.4374 12.4663C91.4374 10.6441 90.4978 8.75418 88.5517 8.75418C86.6051 8.75418 85.6387 10.5631 85.6387 12.5473Z" fill="#333333"/>
</g>
<defs>
<clipPath id="clip0_74_1609">
<rect width="92.6724" height="25" fill="white"/>
</clipPath>
</defs>
</svg>
