<svg width="30" height="30" viewBox="0 0 30 30" fill="none" xmlns="http://www.w3.org/2000/svg">
<path d="M15.0586 6.24635C15.4736 6.24635 16.4596 6.50879 16.4596 6.50879C19.1309 7.12092 21.0111 9.58139 21.0111 12.3594V19.8366L21.5572 20.3853L22.0136 20.8437H7.98645L8.44277 20.3853L8.98893 19.8366V12.3594C8.98893 9.58145 10.8691 7.12092 13.5404 6.50879C13.5404 6.50879 14.5976 6.24635 14.9414 6.24635H15.0586ZM15 2C13.9686 2 13.1801 2.79207 13.1801 3.82812V4.68119C9.72223 5.47355 7.11393 8.64219 7.11393 12.3594V19.0625L4.6875 21.5V22.7188H25.3125V21.5L22.8861 19.0625V12.3594C22.8861 8.64219 20.2777 5.47355 16.8199 4.68119V3.82812C16.8199 2.79207 16.0314 2 15 2V2ZM17.4264 23.9375H12.5735C12.5735 25.2782 13.6653 26.375 15 26.375C16.3347 26.375 17.4264 25.2782 17.4264 23.9375Z" fill="black"/>
<circle cx="20" cy="7" r="5" fill="#F33737"/>
</svg>
