<svg width="25" height="25" viewBox="0 0 25 25" fill="none" xmlns="http://www.w3.org/2000/svg">
<path d="M2.50459 12.47C3.41709 14.4909 4.97116 16.6803 6.76803 18.4772C8.68459 20.3937 10.799 21.9116 12.7218 22.7503C13.7687 23.2072 14.7052 23.4356 15.4937 23.4356C16.2774 23.4356 16.9146 23.2094 17.3668 22.7569L19.1805 20.9437C19.7315 20.3922 19.6821 19.4459 19.0702 18.8337L16.3977 16.1609C15.7852 15.5491 14.8383 15.5 14.2877 16.0509L13.4555 16.8831C13.2249 17.0556 11.7996 16.6166 10.1962 15.0131C8.59178 13.4091 8.15178 11.9828 8.32522 11.7544L9.15834 10.9213C9.70928 10.37 9.65991 9.42312 9.04803 8.81125L6.37491 6.13875C5.76241 5.52687 4.81616 5.47719 4.26491 6.02875L2.45178 7.84188C1.54647 8.74687 1.56522 10.3906 2.50428 12.47H2.50459ZM3.33584 8.72563L5.14928 6.9125C5.16178 6.9 5.18678 6.8925 5.21897 6.8925C5.28959 6.8925 5.39678 6.92781 5.49147 7.0225L8.16397 9.695C8.30209 9.83313 8.31397 9.99781 8.27428 10.0375L7.44116 10.8703C6.40553 11.9066 7.59834 14.1831 9.31209 15.8969C10.1655 16.75 11.104 17.4319 11.9546 17.8159C13.3546 18.4484 14.0493 18.0572 14.3383 17.7675L15.1715 16.9347C15.2115 16.8947 15.3755 16.9069 15.514 17.0447L18.1862 19.7175C18.3243 19.8556 18.3362 20.02 18.2965 20.0597L16.483 21.8731C15.9799 22.3766 14.7608 22.2763 13.2218 21.6044C11.4387 20.8266 9.46053 19.4019 7.65178 17.5934C5.95741 15.8991 4.49678 13.8438 3.64366 11.9553C2.95428 10.4294 2.83897 9.22219 3.33553 8.72563H3.33584ZM23.2171 13.8553C23.2171 7.07719 17.7024 1.5625 10.9243 1.5625V2.8125C17.0133 2.8125 21.9671 7.76656 21.9671 13.8553H23.2171Z" fill="black"/>
<path d="M11.1562 4.97687V6.22687C15.4906 6.22687 19.0172 9.75312 19.0172 14.0875H20.2672C20.2672 9.06374 16.18 4.97687 11.1566 4.97687H11.1562Z" fill="black"/>
<path d="M15.8352 14.0875H17.0852C17.0852 10.8188 14.4258 8.15875 11.1567 8.15875V9.40875C13.7364 9.40875 15.8352 11.5078 15.8352 14.0875Z" fill="black"/>
</svg>
