<svg width="23" height="24" viewBox="0 0 23 24" fill="none" xmlns="http://www.w3.org/2000/svg">
<path id="Orders" d="M22.0254 6.73906C22.0251 6.5699 21.937 6.4148 21.7963 6.3362L18.144 4.29366C17.9352 4.17684 17.6769 4.26259 17.5672 4.4855C17.4576 4.70855 17.5382 4.98381 17.7472 5.10077L20.6808 6.74154L16.6767 8.99897L7.4903 3.86126L11.4945 1.60383L14.5539 3.31482C14.7629 3.43164 15.0212 3.34589 15.1307 3.12298C15.2404 2.90007 15.1598 2.62452 14.9508 2.50771L11.692 0.685083C11.5675 0.615448 11.4184 0.61574 11.2942 0.685813L1.18976 6.38243C1.18627 6.3844 1.18319 6.38702 1.17978 6.38899C1.17602 6.39125 1.17205 6.393 1.16829 6.39541C1.16296 6.39898 1.15817 6.40306 1.15291 6.40678C1.1458 6.41189 1.13876 6.41692 1.13192 6.42246C1.12338 6.42931 1.11552 6.43653 1.10752 6.44397C1.10137 6.4498 1.09508 6.45549 1.0892 6.46176C1.08161 6.46971 1.0745 6.47831 1.0676 6.48685C1.06227 6.49341 1.05693 6.49968 1.05194 6.50653C1.04538 6.51565 1.03937 6.5252 1.03349 6.53475C1.02911 6.5419 1.02453 6.54868 1.02063 6.55597C1.01503 6.5661 1.01038 6.57661 1.00539 6.58732C1.00204 6.59462 0.998418 6.60169 0.995478 6.60927C0.991103 6.6205 0.987617 6.63231 0.983994 6.64405C0.981738 6.65135 0.979072 6.65842 0.977158 6.66586C0.973672 6.67927 0.971416 6.69291 0.96916 6.70676C0.968203 6.71289 0.966631 6.71887 0.96581 6.72499C0.963281 6.7449 0.961914 6.76517 0.961914 6.78551V8.83928V11.1635V17.3614C0.961914 17.5309 1.05003 17.6863 1.19078 17.765L3.98032 19.3251C4.04376 19.3606 4.11157 19.3774 4.17843 19.3774C4.33224 19.3774 4.48071 19.2885 4.55707 19.1332C4.66679 18.9102 4.58619 18.6348 4.37722 18.5179L1.81641 17.0856V11.9363L5.19849 13.9319C5.26281 13.9699 5.33411 13.9889 5.40527 13.9889C5.48033 13.9889 5.55532 13.9678 5.62225 13.9257C5.75254 13.8438 5.83252 13.6945 5.83252 13.5331V11.2089C5.83252 11.0432 5.74803 10.8905 5.61206 10.8101L1.81641 8.57037V7.53896L11.0663 12.712V15.7059C11.0663 15.9576 11.2575 16.1616 11.4936 16.1616C11.7295 16.1616 11.9208 15.9576 11.9208 15.7059V12.712L21.1707 7.53896V12.5134L16.7403 15.028C16.6008 15.1072 16.5137 15.2619 16.5137 15.4304V17.8457C16.5137 18.0062 16.5929 18.155 16.7223 18.2372C16.7896 18.2799 16.8652 18.3015 16.941 18.3015C17.0109 18.3015 17.0808 18.2832 17.1444 18.2465L21.1707 15.9218V17.0855L11.9208 22.2587V19.3066C11.9208 19.055 11.7295 18.8509 11.4936 18.8509C11.2575 18.8509 11.0663 19.055 11.0663 19.3066V22.2587L7.31455 20.1605C7.10558 20.044 6.84752 20.1295 6.73773 20.3525C6.62809 20.5754 6.70875 20.851 6.91786 20.9678L11.2951 23.4159C11.301 23.4193 11.3073 23.4216 11.3133 23.4247C11.3203 23.428 11.3269 23.4316 11.334 23.4346C11.3445 23.4392 11.3553 23.4428 11.3661 23.4464C11.3726 23.4486 11.3791 23.4511 11.3858 23.453C11.3976 23.4562 11.4095 23.4585 11.4214 23.4606C11.4274 23.4618 11.4335 23.4634 11.4397 23.4642C11.4549 23.4663 11.4704 23.4672 11.4858 23.4676C11.4886 23.4676 11.4912 23.4682 11.4939 23.4682C11.5122 23.4682 11.5305 23.4667 11.5488 23.464C11.553 23.4635 11.5571 23.4625 11.5614 23.4616C11.575 23.4594 11.5886 23.4565 11.6021 23.4528C11.6084 23.4511 11.6146 23.4487 11.6208 23.4465C11.6319 23.4428 11.6431 23.439 11.6541 23.4341C11.661 23.4311 11.6677 23.4277 11.6744 23.4243C11.6803 23.4214 11.6863 23.4192 11.6921 23.4159L21.7965 17.7649C21.9372 17.6861 22.0254 17.5307 22.0254 17.3613V15.157V12.7872V6.78537C22.0254 6.77756 22.0243 6.76969 22.0239 6.76189C22.0243 6.7543 22.0254 6.74679 22.0254 6.73906ZM15.7601 9.51558L11.4929 11.9214L2.30661 6.78376L6.57388 4.37795L15.7601 9.51558ZM4.97823 11.4776V12.7602L1.81661 10.8946V9.61213L4.97823 11.4776ZM17.3684 17.0808V15.7041L21.1709 13.5458V14.8853L17.3684 17.0808Z" fill="#B8BECC"/>
</svg>
