<svg width="23" height="23" viewBox="0 0 23 23" fill="none" xmlns="http://www.w3.org/2000/svg">
<path id="Performance" d="M22 22C22 22.2652 21.8946 22.5196 21.7071 22.7071C21.5196 22.8947 21.2652 23 21 23H1C0.734784 23 0.48043 22.8947 0.292893 22.7071C0.105357 22.5196 0 22.2652 0 22V2.00003C0 1.73481 0.105357 1.48046 0.292893 1.29292C0.48043 1.10539 0.734784 1.00003 1 1.00003C1.26522 1.00003 1.51957 1.10539 1.70711 1.29292C1.89464 1.48046 2 1.73481 2 2.00003V18.7L8.17 9.45003C8.26148 9.3139 8.38503 9.20237 8.52977 9.12525C8.67451 9.04813 8.836 9.00779 9 9.00779C9.164 9.00779 9.32549 9.04813 9.47023 9.12525C9.61497 9.20237 9.73852 9.3139 9.83 9.45003L12.93 14.1L20.13 1.50003C20.2626 1.26929 20.4814 1.10068 20.7384 1.03129C20.9953 0.961904 21.2693 0.99742 21.5 1.13003C21.7307 1.26264 21.8993 1.48147 21.9687 1.7384C22.0381 1.99532 22.0026 2.26929 21.87 2.50003L13.87 16.5C13.7819 16.6526 13.655 16.7792 13.5023 16.8671C13.3495 16.9549 13.1762 17.0007 13 17C12.8302 17.0042 12.6622 16.9651 12.5117 16.8864C12.3613 16.8076 12.2333 16.6919 12.14 16.55L9 11.8L2.87 21H21C21.2652 21 21.5196 21.1054 21.7071 21.2929C21.8946 21.4805 22 21.7348 22 22Z" fill="#B8BECC"/>
</svg>
