<svg width="23" height="25" viewBox="0 0 23 25" fill="none" xmlns="http://www.w3.org/2000/svg">
<path id="Schemes" fill-rule="evenodd" clip-rule="evenodd" d="M22.23 12.3829L10.3571 24.2558C10.3404 24.2808 10.3295 24.3089 10.3076 24.3308C10.2587 24.3791 10.2004 24.417 10.1364 24.4422C10.0724 24.4673 10.0039 24.4792 9.9352 24.4771C9.86645 24.4792 9.79799 24.4673 9.73398 24.4422C9.66996 24.417 9.61173 24.3791 9.5628 24.3308C9.54093 24.3089 9.53051 24.2808 9.51332 24.2558L0.783636 15.5261C0.758636 15.5094 0.731032 15.4985 0.708636 15.4766C0.660293 15.4277 0.622393 15.3694 0.597235 15.3054C0.572077 15.2414 0.560186 15.173 0.562282 15.1042C0.560033 15.0354 0.571854 14.9669 0.597021 14.9029C0.622187 14.8389 0.660169 14.7806 0.708636 14.7318C0.731032 14.7099 0.758636 14.6995 0.783636 14.6823L12.6566 2.80994C12.7035 2.74689 12.7643 2.69552 12.8343 2.65983C12.9043 2.62415 12.9816 2.60511 13.0602 2.60421H15.1727C15.242 1.82192 15.5612 1.13546 16.0425 0.685978L16.0508 0.695353C16.1529 0.587541 16.292 0.520874 16.4456 0.520874C16.7539 0.520874 17.0039 0.787541 17.0039 1.11619C17.0039 1.3115 16.9102 1.47608 16.7743 1.58442C16.5248 1.81462 16.3472 2.17764 16.2878 2.60421H18.7894C18.956 2.60421 19.0987 2.68754 19.193 2.80994L22.2295 5.8464C22.2925 5.89346 22.3438 5.9544 22.3795 6.02448C22.4151 6.09457 22.4342 6.17193 22.4352 6.25056V11.9792C22.4344 12.0577 22.4154 12.135 22.3798 12.205C22.3442 12.275 22.2929 12.3359 22.23 12.3829V12.3829ZM16.8404 8.68025C16.7901 8.73484 16.7291 8.77847 16.6612 8.8084C16.5932 8.83833 16.5198 8.85393 16.4456 8.85421C16.1373 8.85421 15.8883 8.58754 15.8883 8.2589C15.8883 8.06358 15.9821 7.899 16.118 7.79015C16.2472 7.67087 16.3529 7.51046 16.4394 7.33025C15.9941 7.449 15.6644 7.85108 15.6644 8.33285C15.6644 8.60912 15.7741 8.87407 15.9695 9.06942C16.1648 9.26477 16.4298 9.37452 16.706 9.37452C16.9823 9.37452 17.2473 9.26477 17.4426 9.06942C17.638 8.87407 17.7477 8.60912 17.7477 8.33285C17.7477 8.0865 17.6592 7.86358 17.5159 7.68494C17.1956 8.49067 16.8404 8.68025 16.8404 8.68025ZM21.3935 6.44848L18.5909 3.64587H16.3967C16.4873 3.87712 16.6175 4.074 16.7743 4.21879C16.7956 4.23598 16.8222 4.2464 16.8404 4.26671L16.8498 4.25733C17.392 4.7641 17.7482 5.56358 17.7482 6.47296C17.7482 6.49483 17.743 6.5141 17.742 6.53546C18.3654 6.89535 18.7899 7.5615 18.7899 8.33337C18.7899 8.88591 18.5704 9.41581 18.1797 9.80651C17.789 10.1972 17.2591 10.4167 16.7066 10.4167C16.154 10.4167 15.6241 10.1972 15.2334 9.80651C14.8427 9.41581 14.6232 8.88591 14.6232 8.33337C14.6239 7.79798 14.8312 7.28351 15.2018 6.89716C15.5725 6.5108 16.0779 6.28236 16.6128 6.25942C16.5659 5.79692 16.3831 5.40108 16.1185 5.15629C16.0972 5.1391 16.0706 5.12869 16.0513 5.10837L16.043 5.11775C15.6555 4.75577 15.3696 4.24015 15.2342 3.64587H13.2586L1.8003 15.1042L9.9352 23.2391L21.3935 11.7808V6.44848V6.44848ZM6.43832 14.211C6.53374 14.1157 6.66309 14.0621 6.79796 14.0621C6.93283 14.0621 7.06218 14.1157 7.15759 14.211L10.8289 17.8823C10.9194 17.9787 10.9688 18.1065 10.9668 18.2386C10.9647 18.3708 10.9112 18.497 10.8178 18.5904C10.7243 18.6839 10.5982 18.7373 10.466 18.7394C10.3338 18.7415 10.206 18.6921 10.1097 18.6016L6.43832 14.9303C6.343 14.8348 6.28946 14.7055 6.28946 14.5706C6.28946 14.4357 6.343 14.3064 6.43832 14.211V14.211ZM8.52166 12.1276C8.61707 12.0323 8.74642 11.9788 8.88129 11.9788C9.01616 11.9788 9.14551 12.0323 9.24093 12.1276L12.9118 15.799C13.0022 15.8954 13.0517 16.0232 13.0496 16.1553C13.0475 16.2875 12.9941 16.4136 12.9006 16.5071C12.8071 16.6006 12.681 16.654 12.5488 16.6561C12.4166 16.6582 12.2889 16.6087 12.1925 16.5183L8.52166 12.8469C8.42634 12.7515 8.3728 12.6222 8.3728 12.4873C8.3728 12.3524 8.42634 12.2231 8.52166 12.1276V12.1276Z" fill="#B8BECC"/>
</svg>
