<svg width="45" height="45" viewBox="0 0 45 45" fill="none" xmlns="http://www.w3.org/2000/svg">
<path d="M29.3233 8.61479L29.388 8.63865L30.4849 9.24891L29.8014 10.478L28.7439 9.88732L28.6286 9.84526L29.1813 8.55282L29.3233 8.61479ZM26.0946 8.78491L26.0721 8.89323H26.0622L26.0285 8.87915L24.7558 8.61479L25.0427 7.23669L26.3617 7.51221L26.4264 7.53607L26.4827 7.55719L26.0946 8.78491ZM33.0949 11.2191L33.1469 11.264L33.895 12.0473L32.8825 13.0219L32.1344 12.2442H32.1287L31.9375 12.0825L32.8516 11.0124L33.0949 11.2191ZM35.875 14.7151L35.9088 14.7742L36.3784 15.684L35.1297 16.3308L34.6642 15.4337L34.6586 15.4167L34.4899 15.1537L35.6697 14.3915L35.875 14.7151ZM37.5372 18.8326L37.5527 18.9001L37.7383 19.8746L36.3602 20.1376L36.1745 19.1869L36.0719 18.8326L37.4205 18.4374L37.5372 18.8326ZM8.84125 25.8146L8.93691 26.1394L7.5883 26.5345L7.4786 26.1689L7.46315 26.1014L7.27051 25.0974L8.65002 24.8303L8.84125 25.8146ZM10.353 29.5664L10.3586 29.5834L10.5105 29.8196L9.32924 30.5818L9.1408 30.2879L9.10707 30.2288L8.6205 29.2893L9.87204 28.6439L10.353 29.5664ZM12.88 32.7545H12.8871L13.0558 32.8978L12.1417 33.9666L11.9209 33.7767L11.8703 33.7304L11.0969 32.9246L12.1122 31.9501L12.88 32.7545ZM19.9478 37.7495L18.6583 37.4822L18.5936 37.4584L18.5092 37.4275L18.9311 36.0873L18.9874 36.1098L20.2375 36.3657L19.9478 37.7495ZM16.2719 35.1042L16.3619 35.138L15.805 36.4318L15.6967 36.3755L15.632 36.3517L14.5084 35.7258L15.1919 34.4967L16.2719 35.1042Z" fill="#2B4255"/>
<path fill-rule="evenodd" clip-rule="evenodd" d="M21.7969 30.936V40.7798H23.2031V30.936H21.7969ZM21.7969 4.21729V14.061H23.2031V4.21729H21.7969Z" fill="#F05542"/>
<path d="M21.679 16.9341C20.4725 17.1136 19.3569 17.6797 18.4998 18.5474C17.6427 19.4152 17.0904 20.5378 16.9259 21.7463C16.7647 22.9544 17.0002 24.182 17.5967 25.2448C18.1932 26.3076 19.1186 27.1479 20.2337 27.6396C21.3489 28.1313 22.5936 28.2479 23.7806 27.9715C24.9676 27.6951 26.0328 27.0408 26.816 26.107C26.8777 26.0365 26.9247 25.9543 26.9542 25.8653C26.9837 25.7764 26.9951 25.6823 26.9878 25.5888C26.9804 25.4953 26.9544 25.4043 26.9113 25.321C26.8682 25.2377 26.809 25.1639 26.737 25.1039C26.6649 25.0438 26.5816 24.9989 26.492 24.9715C26.4023 24.9442 26.308 24.9351 26.2148 24.9447C26.1215 24.9543 26.0311 24.9824 25.9489 25.0275C25.8666 25.0725 25.7943 25.1336 25.736 25.207C25.1498 25.9096 24.3507 26.4023 23.4596 26.6104C22.5686 26.8184 21.634 26.7306 20.7973 26.3602C19.9598 25.992 19.265 25.361 18.818 24.5628C18.3709 23.7646 18.1959 22.8427 18.3195 21.9362C18.4408 21.0293 18.8543 20.1866 19.4972 19.5355C20.1401 18.8845 20.9776 18.4604 21.8829 18.3277C22.7881 18.1928 23.7126 18.356 24.5168 18.7929C25.321 19.2298 25.9612 19.9164 26.3407 20.7492C26.3775 20.8353 26.4312 20.9133 26.4986 20.9783C26.566 21.0434 26.6457 21.0943 26.7331 21.1282C26.8204 21.162 26.9136 21.1781 27.0072 21.1754C27.1008 21.1727 27.193 21.1513 27.2782 21.1126C27.3635 21.0738 27.4401 21.0183 27.5037 20.9495C27.5672 20.8807 27.6163 20.7998 27.6482 20.7117C27.6801 20.6237 27.6941 20.5301 27.6893 20.4366C27.6845 20.343 27.6611 20.2514 27.6204 20.167C27.1137 19.0574 26.2605 18.1424 25.1891 17.5593C24.1176 16.9763 22.8858 16.7569 21.679 16.9341Z" fill="#F05542"/>
<path d="M22.5 9.84229C15.518 9.84229 9.84375 15.5179 9.84375 22.4985C9.84375 29.4806 15.518 35.1548 22.5 35.1548C29.482 35.1548 35.1562 29.4806 35.1562 22.4985C35.1562 15.5179 29.482 9.84229 22.5 9.84229ZM22.5 11.2485C28.7213 11.2485 33.75 16.2773 33.75 22.4985C33.75 28.7198 28.7213 33.7485 22.5 33.7485C16.2788 33.7485 11.25 28.7198 11.25 22.4985C11.25 16.2773 16.2788 11.2485 22.5 11.2485Z" fill="#F05542"/>
<path fill-rule="evenodd" clip-rule="evenodd" d="M4.21875 21.7954V23.2017H14.0625V21.7954H4.21875ZM30.9375 21.7954V23.2017H40.7812V21.7954H30.9375Z" fill="#F05542"/>
<path d="M15.6855 8.61479L15.6222 8.63865L14.5253 9.24891L15.2074 10.478L16.2649 9.88732L16.3816 9.84526L15.8275 8.55282L15.6855 8.61479ZM18.9143 8.78491L18.9367 8.89323H18.9466L18.9803 8.87915L20.253 8.61479L19.9675 7.23669L18.6471 7.51221L18.5838 7.53607L18.5275 7.55719L18.9143 8.78491ZM11.9139 11.2191L11.8633 11.264L11.1138 12.0473L12.1263 13.0219L12.8744 12.2442H12.88L13.0727 12.0825L12.1586 11.0124L11.9139 11.2191ZM9.13518 14.7151L9.10141 14.7742L8.63032 15.684L9.87907 16.3308L10.346 15.4337L10.3516 15.4167L10.5203 15.1537L9.33907 14.3915L9.13518 14.7151ZM7.47157 18.8326L7.45612 18.9001L7.27051 19.8746L8.64861 20.1376L8.83426 19.1869L8.93691 18.8326L7.5883 18.4374L7.47157 18.8326ZM36.1675 25.8146L36.0719 26.1394L37.4205 26.5345L37.5302 26.1689L37.5457 26.1014L37.7383 25.0974L36.3602 24.8303L36.1675 25.8146ZM34.6572 29.5664L34.6516 29.5834L34.4983 29.8196L35.6796 30.5818L35.868 30.2879L35.9017 30.2288L36.3883 29.2893L35.1367 28.6439L34.6572 29.5664ZM32.1302 32.7545H32.1231L31.953 32.8978L32.8671 33.9666L33.0892 33.7767L33.1385 33.7304L33.9119 32.9246L32.8966 31.9501L32.1302 32.7545ZM25.061 37.7495L26.3519 37.4822L26.4152 37.4584L26.4995 37.4275L26.0777 36.0873L26.0214 36.1098L24.7727 36.3657L25.061 37.7495ZM28.7369 35.1042L28.6469 35.138L29.2038 36.4318L29.312 36.3755L29.3768 36.3517L30.5017 35.7258L29.8183 34.4967L28.7369 35.1042Z" fill="#2B4255"/>
<path d="M27.4389 21.9993C27.3466 21.9967 27.2546 22.0124 27.1683 22.0453C27.082 22.0782 27.0031 22.1277 26.9359 22.1912C26.8688 22.2547 26.8148 22.3307 26.7771 22.4151C26.7394 22.4994 26.7187 22.5903 26.7161 22.6827C26.7049 22.9513 26.6655 23.2171 26.6036 23.48C26.5804 23.5706 26.5754 23.665 26.589 23.7575C26.6027 23.8499 26.6345 23.9387 26.6829 24.0187C26.7312 24.0987 26.7951 24.1683 26.8706 24.2233C26.9462 24.2784 27.0319 24.3177 27.1229 24.3392C27.2139 24.3607 27.3082 24.3639 27.4004 24.3485C27.4926 24.3331 27.5808 24.2995 27.6599 24.2496C27.7389 24.1997 27.8073 24.1346 27.8608 24.058C27.9144 23.9814 27.9522 23.8948 27.9719 23.8035C28.0549 23.4547 28.1041 23.1005 28.1196 22.7433C28.1253 22.6493 28.112 22.5551 28.0807 22.4664C28.0493 22.3776 28.0004 22.2961 27.9369 22.2266C27.8735 22.1571 27.7967 22.1011 27.7111 22.0618C27.6256 22.0225 27.533 22.0008 27.4389 21.9979V21.9993Z" fill="#F05542"/>
</svg>
